# xmcd
#
# Track frame offsets:
#	183
#	18620
#	35575
#	54808
#	74833
#	101545
#	118198
#	136873
#	155360
#	172920
#	189458
#
# Disc length: 2720 seconds
#
# Revision: 3
# Processed by: cddbd v1.5.2PL0 Copyright (c) Steve Scherf et al.
# Submitted via: EasyCDDAExtractor 16.0.6.1
#
DISCID=920a9e0b
DTITLE=변진섭 - 2집
DYEAR=1990
DGENRE=Blues
TTITLE0=너에게로 또 다시
TTITLE1=숙녀에게
TTITLE2=로라
TTITLE3=커가는 내 모습
TTITLE4=우리의 사랑이 필요한거죠
TTITLE5=저하늘을 날아서
TTITLE6=이별을 받아드리리
TTITLE7=너의 뒷모습
TTITLE8=당신의 장난감 당신의 인형
TTITLE9=너를 그리워하며
TTITLE10=희망사항
EXTD=
EXTT0=
EXTT1=
EXTT2=
EXTT3=
EXTT4=
EXTT5=
EXTT6=
EXTT7=
EXTT8=
EXTT9=
EXTT10=
PLAYORDER=
